<svg xmlns="http://www.w3.org/2000/svg" viewBox="0 0 234 192.09"><defs><style>.a{fill:#008aa4;}</style></defs><path class="a" d="M259.63,148c-3.56-25.72-12.14-59.92-45.31-59.92-14.22,0-27.5,4.65-40.34,9.13-5.29,1.85-10.44,3.65-15.37,5,3-6.8,5.1-15,2.87-22.31-1.43-4.72-5.21-11-15.1-14.28-4.43-1.46-5.08-3.53-5.33-4.31-1.87-6,4.13-17.75,9-24.18L138,28c-1.68,2.21-16.27,22.08-11.38,37.8,1.46,4.7,5.26,11,15,14.19,4.51,1.49,5.13,3.53,5.36,4.3,1.5,4.89-2.56,13.74-6.74,20.07-8-.79-16.9-3.88-26.22-7.14-12.84-4.48-26.12-9.13-40.34-9.13-20.59,0-32.82,8.56-46.71,32.71l7.79,4.48c-2.85,5.07-5,12.71-6.39,22.73-3,22-1.79,52.4,11.79,65.52a22.88,22.88,0,0,0,20.57,6.15c11.44-2,23.7-9.72,36.67-17.91,15.76-9.95,32-20.24,46.58-20.24s30.83,10.29,46.59,20.24c13,8.19,25.23,15.93,36.67,17.91a26.53,26.53,0,0,0,4.56.4,22.5,22.5,0,0,0,16-6.55C261.42,200.36,262.68,170,259.63,148Zm-22.3,54.65a7.89,7.89,0,0,1-7.48,2.12c-8.49-1.47-19.51-8.42-31.17-15.79-16.76-10.59-35.76-22.58-54.67-22.58s-37.9,12-54.66,22.58c-11.66,7.36-22.68,14.32-31.17,15.79a7.89,7.89,0,0,1-7.49-2.12c-7.45-7.21-10.53-29.32-7.31-52.58,1.49-10.77,3.54-15.56,4.63-17.46l-7.8-4.46c12.24-21.21,20.57-25,33.5-25,11.66,0,23.7,4.21,35.35,8.29s23.4,8.18,34.95,8.18,23.45-4.16,35-8.18,23.69-8.29,35.35-8.29c11.1,0,24.58,5.33,30.33,46.87C247.87,173.3,244.79,195.41,237.33,202.62ZM83.39,117a29.28,29.28,0,1,0,29.28,29.28A29.31,29.31,0,0,0,83.39,117Zm0,43.43a14.16,14.16,0,1,1,14.16-14.15A14.17,14.17,0,0,1,83.39,160.4ZM203.48,117a29.28,29.28,0,1,0,29.28,29.28A29.31,29.31,0,0,0,203.48,117Zm0,43.43a14.16,14.16,0,1,1,14.16-14.15A14.17,14.17,0,0,1,203.48,160.4Zm4.18-6.2a4.18,4.18,0,1,1-4.18-4.17A4.18,4.18,0,0,1,207.66,154.2Zm-8.35-15.91a4.18,4.18,0,1,1,4.17,4.17A4.17,4.17,0,0,1,199.31,138.29Zm12.13,3.79a4.17,4.17,0,1,1-4.17,4.17A4.17,4.17,0,0,1,211.44,142.08Zm-11.74,4.17a4.17,4.17,0,1,1-4.17-4.17A4.17,4.17,0,0,1,199.7,146.25Zm-107.32-4A3.72,3.72,0,0,1,96.1,146v1.11a3.72,3.72,0,0,1-3.72,3.72H87.93v4.45A3.72,3.72,0,0,1,84.21,159H83.1a3.72,3.72,0,0,1-3.72-3.72v-4.45H74.93a3.72,3.72,0,0,1-3.72-3.72V146a3.72,3.72,0,0,1,3.72-3.72h4.45v-4.45a3.72,3.72,0,0,1,3.72-3.72h1.11a3.72,3.72,0,0,1,3.72,3.72v4.45Z" transform="translate(-27 -27.96)"/></svg>